<?xml version="1.0" encoding="UTF-8" standalone="no"?>
<!-- Created with Inkscape (http://www.inkscape.org/) -->

<svg
   xmlns:dc="http://purl.org/dc/elements/1.1/"
   xmlns:cc="http://creativecommons.org/ns#"
   xmlns:rdf="http://www.w3.org/1999/02/22-rdf-syntax-ns#"
   xmlns:svg="http://www.w3.org/2000/svg"
   xmlns="http://www.w3.org/2000/svg"
   xmlns:sodipodi="http://sodipodi.sourceforge.net/DTD/sodipodi-0.dtd"
   xmlns:inkscape="http://www.inkscape.org/namespaces/inkscape"
   width="210mm"
   height="297mm"
   viewBox="0 0 210 297"
   version="1.1"
   id="svg8"
   inkscape:version="0.92.5 (2060ec1f9f, 2020-04-08)"
   sodipodi:docname="featured.svg">
  <defs
     id="defs2">
    <clipPath
       clipPathUnits="userSpaceOnUse"
       id="clipPath64">
      <path
         style="fill:none;stroke:#000000;stroke-width:0.26458332px;stroke-linecap:butt;stroke-linejoin:miter;stroke-opacity:1"
         d="m -837.4616,-221.64819 c 12.29728,-14.42996 25.9402,-27.08021 43.86818,-35.15178 18.16425,-7.24345 34.10627,-10.14839 50.11425,-9.96104 18.08584,0.84719 34.63462,5.34485 49.86994,12.96191 21.08565,12.10579 31.83406,24.85766 41.71101,37.66399 14.57285,21.52775 17.26991,40.1668 18.8759,58.54045 0.27631,19.78237 -3.17002,34.97585 -8.58276,48.35803 -7.7369,15.193979 -16.05828,28.993323 -28.0351,39.240736 -13.45739,14.616883 -38.04443,23.630374 -50.04943,27.084589 -21.14888,5.421405 -32.6523,2.115944 -46.84612,1.244634 -32.59224,-5.707978 -45.57379,-19.106422 -60.65567,-31.681216 -14.32613,-14.126895 -21.44591,-29.154583 -27.32104,-44.337853 -3.90755,-16.27524 -6.967,-32.45071 -4.89077,-48.02197 2.6048,-11.90009 -0.44664,-10.63994 9.38062,-34.30806 3.55714,-7.08478 7.21424,-13.4043 12.56099,-21.63242 z"
         id="path66"
         inkscape:connector-curvature="0"
         sodipodi:nodetypes="ccccccccccccccc" />
    </clipPath>
    <linearGradient
       spreadMethod="pad"
       gradientUnits="userSpaceOnUse"
       y2="593.78698"
       y1="3.6658269"
       x2="590.86259"
       x1="0.74144253"
       id="gradientFill-1"
       gradientTransform="matrix(6.8804968,0,0,4.6080629,-2856.6613,-998.0272)">
      <stop
         id="stop12"
         stop-opacity="1"
         stop-color="rgb(203,206,208)"
         offset="0" />
      <stop
         id="stop14"
         stop-opacity="1"
         stop-color="rgb(132,131,139)"
         offset="1" />
    </linearGradient>
    <linearGradient
       spreadMethod="pad"
       gradientUnits="userSpaceOnUse"
       y2="553.44209"
       y1="151.40061"
       x2="703.06751"
       x1="301.02603"
       id="gradientFill-2"
       gradientTransform="matrix(5.5741841,0,0,5.6879649,-2856.6613,-998.0272)">
      <stop
         id="stop17"
         stop-opacity="1"
         stop-color="rgb(39,109,195)"
         offset="0" />
      <stop
         id="stop19"
         stop-opacity="1"
         stop-color="rgb(22,92,170)"
         offset="1" />
    </linearGradient>
  </defs>
  <sodipodi:namedview
     id="base"
     pagecolor="#ffffff"
     bordercolor="#666666"
     borderopacity="1.0"
     inkscape:pageopacity="0.0"
     inkscape:pageshadow="2"
     inkscape:zoom="2.8"
     inkscape:cx="208.50487"
     inkscape:cy="551.18249"
     inkscape:document-units="mm"
     inkscape:current-layer="layer1"
     showgrid="false"
     inkscape:window-width="1856"
     inkscape:window-height="1024"
     inkscape:window-x="64"
     inkscape:window-y="28"
     inkscape:window-maximized="1" />
  <metadata
     id="metadata5">
    <rdf:RDF>
      <cc:Work
         rdf:about="">
        <dc:format>image/svg+xml</dc:format>
        <dc:type
           rdf:resource="http://purl.org/dc/dcmitype/StillImage" />
        <dc:title />
      </cc:Work>
    </rdf:RDF>
  </metadata>
  <g
     inkscape:label="Layer 1"
     inkscape:groupmode="layer"
     id="layer1"
     style="display:inline;opacity:1">
    <g
       id="g42"
       transform="matrix(0.04698869,0,0,0.04698869,60.140961,134.60239)"
       style="stroke-width:5.63078737"
       inkscape:export-filename="/home/mude/data/github/mauriciovancine.github.io/content/pt/post/r-introdution/featured.png"
       inkscape:export-xdpi="300"
       inkscape:export-ydpi="300">
      <path
         id="path24"
         d="M 361.453,485.937 C 162.329,485.937 0.906,377.828 0.906,244.469 0.906,111.109 162.329,3 361.453,3 560.578,3 722,111.109 722,244.469 722,377.828 560.578,485.937 361.453,485.937 Z M 416.641,97.406 c -151.352,0 -274.047,73.908 -274.047,165.078 0,91.17 122.695,165.078 274.047,165.078 151.351,0 263.046,-50.529 263.046,-165.078 0,-114.513 -111.695,-165.078 -263.046,-165.078 z"
         inkscape:connector-curvature="0"
         style="fill:url(#gradientFill-1);fill-rule:evenodd;stroke-width:5.63078737" />
      <path
         id="path26"
         d="m 550,377 c 0,0 21.822,6.585 34.5,13 4.399,2.226 12.01,6.668 17.5,12.5 5.378,5.712 8,11.5 8,11.5 L 696,559 557,559.062 492,437 c 0,0 -13.31,-22.869 -21.5,-29.5 -6.832,-5.531 -9.745,-7.5 -16.5,-7.5 -4.702,0 -33.026,0 -33.026,0 L 421,558.974 298,559.026 V 152.938 h 247 c 0,0 112.5,2.029 112.5,109.062 0,107.033 -107.5,115 -107.5,115 z m -53.5,-135.976 -74.463,-0.048 -0.037,69.05 74.5,-0.024 c 0,0 34.5,-0.107 34.5,-35.125 0,-35.722 -34.5,-33.853 -34.5,-33.853 z"
         inkscape:connector-curvature="0"
         style="fill:url(#gradientFill-2);fill-rule:evenodd;stroke-width:5.63078737" />
    </g>
  </g>
</svg>
